<svg height="420px" viewBox="0 0 576 432" width="560px" xmlns="http://www.w3.org/2000/svg" xmlns:xlink="http://www.w3.org/1999/xlink">

<title>Gnuplot</title>
<desc>Produced by GNUPLOT 5.0 patchlevel 4 </desc>

<g id="gnuplot_canvas">

<rect fill="none" height="432" width="576" x="0" y="0"/>
<defs>

	<circle id="gpDot" r="0.5" stroke-width="0.5"/>
	<path d="M-1,0 h2 M0,-1 v2" id="gpPt0" stroke="currentColor" stroke-width="0.333"/>
	<path d="M-1,-1 L1,1 M1,-1 L-1,1" id="gpPt1" stroke="currentColor" stroke-width="0.333"/>
	<path d="M-1,0 L1,0 M0,-1 L0,1 M-1,-1 L1,1 M-1,1 L1,-1" id="gpPt2" stroke="currentColor" stroke-width="0.333"/>
	<rect height="2" id="gpPt3" stroke="currentColor" stroke-width="0.333" width="2" x="-1" y="-1"/>
	<rect fill="currentColor" height="2" id="gpPt4" stroke="currentColor" stroke-width="0.333" width="2" x="-1" y="-1"/>
	<circle cx="0" cy="0" id="gpPt5" r="1" stroke="currentColor" stroke-width="0.333"/>
	<use fill="currentColor" id="gpPt6" stroke="none" xlink:href="#gpPt5"/>
	<path d="M0,-1.33 L-1.33,0.67 L1.33,0.67 z" id="gpPt7" stroke="currentColor" stroke-width="0.333"/>
	<use fill="currentColor" id="gpPt8" stroke="none" xlink:href="#gpPt7"/>
	<use id="gpPt9" stroke="currentColor" transform="rotate(180)" xlink:href="#gpPt7"/>
	<use fill="currentColor" id="gpPt10" stroke="none" xlink:href="#gpPt9"/>
	<use id="gpPt11" stroke="currentColor" transform="rotate(45)" xlink:href="#gpPt3"/>
	<use fill="currentColor" id="gpPt12" stroke="none" xlink:href="#gpPt11"/>
	<path d="M0,1.330 L1.265,0.411 L0.782,-1.067 L-0.782,-1.076 L-1.265,0.411 z" id="gpPt13" stroke="currentColor" stroke-width="0.333"/>
	<use fill="currentColor" id="gpPt14" stroke="none" xlink:href="#gpPt13"/>
	<filter filterUnits="objectBoundingBox" height="1" id="textbox" width="1" x="0" y="0">
	  <feFlood flood-color="white" flood-opacity="1" result="bgnd"/>
	  <feComposite in="SourceGraphic" in2="bgnd" operator="atop"/>
	</filter>
	<filter filterUnits="objectBoundingBox" height="1" id="greybox" width="1" x="0" y="0">
	  <feFlood flood-color="lightgrey" flood-opacity="1" result="grey"/>
	  <feComposite in="SourceGraphic" in2="grey" operator="atop"/>
	</filter>
</defs>
<g color="white" fill="none" stroke="currentColor" stroke-linecap="butt" stroke-linejoin="miter" stroke-width="1.00">
</g>
<g color="black" fill="none" stroke="currentColor" stroke-linecap="butt" stroke-linejoin="miter" stroke-width="1.00">
	<g shape-rendering="crispEdges" stroke="none">
		<polygon fill="rgb(255, 255, 255)" points="48.4,393.6 559.0,393.6 559.0,39.2 48.4,39.2 "/>
	</g>
</g>
<g color="black" fill="none" stroke="rgb(255, 255, 255)" stroke-linecap="butt" stroke-linejoin="miter" stroke-width="0.50">
</g>
<g color="black" fill="none" stroke="currentColor" stroke-linecap="butt" stroke-linejoin="miter" stroke-width="0.50">
	<path d="M48.4,393.6 L56.8,393.6 M559.1,393.6 L550.7,393.6  " stroke="black"/>	<g fill="rgb(0,0,0)" font-family="{}" font-size="10.00" stroke="none" text-anchor="end" transform="translate(42.8,397.3)">
		<text><tspan font-family="{}">-2</tspan></text>
	</g>
</g>
<g color="black" fill="none" stroke="currentColor" stroke-linecap="butt" stroke-linejoin="miter" stroke-width="0.50">
	<path d="M48.4,349.3 L56.8,349.3 M559.1,349.3 L550.7,349.3  " stroke="black"/>	<g fill="rgb(0,0,0)" font-family="{}" font-size="10.00" stroke="none" text-anchor="end" transform="translate(42.8,353.0)">
		<text><tspan font-family="{}">-1.5</tspan></text>
	</g>
</g>
<g color="black" fill="none" stroke="currentColor" stroke-linecap="butt" stroke-linejoin="miter" stroke-width="0.50">
	<path d="M48.4,305.0 L56.8,305.0 M559.1,305.0 L550.7,305.0  " stroke="black"/>	<g fill="rgb(0,0,0)" font-family="{}" font-size="10.00" stroke="none" text-anchor="end" transform="translate(42.8,308.7)">
		<text><tspan font-family="{}">-1</tspan></text>
	</g>
</g>
<g color="black" fill="none" stroke="currentColor" stroke-linecap="butt" stroke-linejoin="miter" stroke-width="0.50">
	<path d="M48.4,260.7 L56.8,260.7 M559.1,260.7 L550.7,260.7  " stroke="black"/>	<g fill="rgb(0,0,0)" font-family="{}" font-size="10.00" stroke="none" text-anchor="end" transform="translate(42.8,264.4)">
		<text><tspan font-family="{}">-0.5</tspan></text>
	</g>
</g>
<g color="black" fill="none" stroke="currentColor" stroke-linecap="butt" stroke-linejoin="miter" stroke-width="0.50">
	<path d="M48.4,216.3 L56.8,216.3 M559.1,216.3 L550.7,216.3  " stroke="black"/>	<g fill="rgb(0,0,0)" font-family="{}" font-size="10.00" stroke="none" text-anchor="end" transform="translate(42.8,220.0)">
		<text><tspan font-family="{}">0</tspan></text>
	</g>
</g>
<g color="black" fill="none" stroke="currentColor" stroke-linecap="butt" stroke-linejoin="miter" stroke-width="0.50">
	<path d="M48.4,172.0 L56.8,172.0 M559.1,172.0 L550.7,172.0  " stroke="black"/>	<g fill="rgb(0,0,0)" font-family="{}" font-size="10.00" stroke="none" text-anchor="end" transform="translate(42.8,175.7)">
		<text><tspan font-family="{}">0.5</tspan></text>
	</g>
</g>
<g color="black" fill="none" stroke="currentColor" stroke-linecap="butt" stroke-linejoin="miter" stroke-width="0.50">
	<path d="M48.4,127.7 L56.8,127.7 M559.1,127.7 L550.7,127.7  " stroke="black"/>	<g fill="rgb(0,0,0)" font-family="{}" font-size="10.00" stroke="none" text-anchor="end" transform="translate(42.8,131.4)">
		<text><tspan font-family="{}">1</tspan></text>
	</g>
</g>
<g color="black" fill="none" stroke="currentColor" stroke-linecap="butt" stroke-linejoin="miter" stroke-width="0.50">
	<path d="M48.4,83.4 L56.8,83.4 M559.1,83.4 L550.7,83.4  " stroke="black"/>	<g fill="rgb(0,0,0)" font-family="{}" font-size="10.00" stroke="none" text-anchor="end" transform="translate(42.8,87.1)">
		<text><tspan font-family="{}">1.5</tspan></text>
	</g>
</g>
<g color="black" fill="none" stroke="currentColor" stroke-linecap="butt" stroke-linejoin="miter" stroke-width="0.50">
	<path d="M48.4,39.1 L56.8,39.1 M559.1,39.1 L550.7,39.1  " stroke="black"/>	<g fill="rgb(0,0,0)" font-family="{}" font-size="10.00" stroke="none" text-anchor="end" transform="translate(42.8,42.8)">
		<text><tspan font-family="{}">2</tspan></text>
	</g>
</g>
<g color="black" fill="none" stroke="currentColor" stroke-linecap="butt" stroke-linejoin="miter" stroke-width="0.50">
	<path d="M48.4,393.6 L48.4,385.2 M48.4,39.1 L48.4,47.5  " stroke="black"/>	<g fill="rgb(0,0,0)" font-family="{}" font-size="10.00" stroke="none" text-anchor="middle" transform="translate(48.4,409.3)">
		<text><tspan font-family="{}">1900</tspan></text>
	</g>
</g>
<g color="black" fill="none" stroke="currentColor" stroke-linecap="butt" stroke-linejoin="miter" stroke-width="0.50">
	<path d="M133.5,393.6 L133.5,385.2 M133.5,39.1 L133.5,47.5  " stroke="black"/>	<g fill="rgb(0,0,0)" font-family="{}" font-size="10.00" stroke="none" text-anchor="middle" transform="translate(133.5,409.3)">
		<text><tspan font-family="{}">1920</tspan></text>
	</g>
</g>
<g color="black" fill="none" stroke="currentColor" stroke-linecap="butt" stroke-linejoin="miter" stroke-width="0.50">
	<path d="M218.6,393.6 L218.6,385.2 M218.6,39.1 L218.6,47.5  " stroke="black"/>	<g fill="rgb(0,0,0)" font-family="{}" font-size="10.00" stroke="none" text-anchor="middle" transform="translate(218.6,409.3)">
		<text><tspan font-family="{}">1940</tspan></text>
	</g>
</g>
<g color="black" fill="none" stroke="currentColor" stroke-linecap="butt" stroke-linejoin="miter" stroke-width="0.50">
	<path d="M303.8,393.6 L303.8,385.2 M303.8,39.1 L303.8,47.5  " stroke="black"/>	<g fill="rgb(0,0,0)" font-family="{}" font-size="10.00" stroke="none" text-anchor="middle" transform="translate(303.8,409.3)">
		<text><tspan font-family="{}">1960</tspan></text>
	</g>
</g>
<g color="black" fill="none" stroke="currentColor" stroke-linecap="butt" stroke-linejoin="miter" stroke-width="0.50">
	<path d="M388.9,393.6 L388.9,385.2 M388.9,39.1 L388.9,47.5  " stroke="black"/>	<g fill="rgb(0,0,0)" font-family="{}" font-size="10.00" stroke="none" text-anchor="middle" transform="translate(388.9,409.3)">
		<text><tspan font-family="{}">1980</tspan></text>
	</g>
</g>
<g color="black" fill="none" stroke="currentColor" stroke-linecap="butt" stroke-linejoin="miter" stroke-width="0.50">
	<path d="M474.0,393.6 L474.0,385.2 M474.0,39.1 L474.0,47.5  " stroke="black"/>	<g fill="rgb(0,0,0)" font-family="{}" font-size="10.00" stroke="none" text-anchor="middle" transform="translate(474.0,409.3)">
		<text><tspan font-family="{}">2000</tspan></text>
	</g>
</g>
<g color="black" fill="none" stroke="currentColor" stroke-linecap="butt" stroke-linejoin="miter" stroke-width="0.50">
	<path d="M559.1,393.6 L559.1,385.2 M559.1,39.1 L559.1,47.5  " stroke="black"/>	<g fill="rgb(0,0,0)" font-family="{}" font-size="10.00" stroke="none" text-anchor="middle" transform="translate(559.1,409.3)">
		<text><tspan font-family="{}">2020</tspan></text>
	</g>
</g>
<g color="black" fill="none" stroke="currentColor" stroke-linecap="butt" stroke-linejoin="miter" stroke-width="0.50">
</g>
<g color="black" fill="none" stroke="currentColor" stroke-linecap="butt" stroke-linejoin="miter" stroke-width="0.50">
	<path d="M48.4,39.1 L48.4,393.6 L559.1,393.6 L559.1,39.1 L48.4,39.1 Z  " stroke="black"/></g>
<g color="black" fill="none" stroke="currentColor" stroke-linecap="butt" stroke-linejoin="miter" stroke-width="0.50">
	<g fill="rgb(0,0,0)" font-family="{}" font-size="10.00" stroke="none" text-anchor="middle" transform="translate(12.5,216.4) rotate(-90)">
		<text><tspan font-family="{}">avg anomaly (Centigrade) in the US</tspan></text>
	</g>
</g>
<g color="black" fill="none" stroke="currentColor" stroke-linecap="butt" stroke-linejoin="miter" stroke-width="0.50">
	<g fill="rgb(0,0,0)" font-family="{}" font-size="10.00" stroke="none" text-anchor="middle" transform="translate(303.7,427.3)">
		<text><tspan font-family="{}">year</tspan></text>
	</g>
</g>
<g color="black" fill="none" stroke="currentColor" stroke-linecap="butt" stroke-linejoin="miter" stroke-width="0.50">
	<g fill="rgb(0,0,0)" font-family="{}" font-size="10.00" stroke="none" text-anchor="middle" transform="translate(303.7,21.8)">
		<text><tspan font-family="{}">average US temperature anomaly by year</tspan></text>
	</g>
</g>
<g color="black" fill="none" stroke="currentColor" stroke-linecap="butt" stroke-linejoin="miter" stroke-width="0.50">
</g>
	<g id="gnuplot_plot_1a"><title>gnuplot_plot_1a</title>
<g color="black" fill="none" stroke="currentColor" stroke-linecap="butt" stroke-linejoin="miter" stroke-width="0.50">
	<path d="M116.5,314.5 L120.7,385.5 L125.0,269.3 L129.3,278.1 L133.5,302.0 L137.8,147.0 L142.0,237.8 L146.3,270.5   L150.5,349.9 L154.8,241.9 L159.1,288.7 L163.3,258.1 L167.6,268.6 L171.8,336.1 L176.1,240.8 L180.3,145.3   L184.6,263.4 L188.8,195.0 L193.1,170.4 L197.4,260.9 L201.6,267.5 L205.9,284.1 L210.1,181.4 L214.4,192.4   L218.6,284.3 L222.9,206.6 L227.1,256.6 L231.4,259.1 L235.7,241.1 L239.9,277.3 L244.2,193.5 L248.4,266.7   L252.7,257.1 L256.9,239.5 L261.2,319.5 L265.4,320.6 L269.7,225.6 L274.0,176.1 L278.2,179.2 L282.5,247.9   L286.7,233.2 L291.0,252.3 L295.2,277.4 L299.5,264.5 L303.8,293.0 L308.0,267.7 L312.3,262.5 L316.5,239.4   L320.8,255.2 L325.0,280.7 L329.3,300.2 L333.5,285.1 L337.8,290.4 L342.1,287.6 L346.3,281.9 L350.6,265.8   L354.8,308.0 L359.1,229.6 L363.3,252.8 L367.6,270.0 L371.8,284.7 L376.1,222.6 L380.4,321.6 L384.6,338.3   L388.9,241.6 L393.1,197.6 L397.4,290.7 L401.6,258.9 L405.9,246.6 L410.1,296.4 L414.4,194.6 L418.7,164.0   L422.9,229.4 L427.2,285.4 L431.4,173.8 L435.7,191.1 L439.9,246.8 L444.2,301.3 L448.4,221.3 L452.7,237.7   L457.0,300.8 L461.2,261.4 L465.5,111.8 L469.7,143.4 L474.0,194.5 L478.2,163.2 L482.5,196.6 L486.8,210.0   L491.0,209.3 L495.3,163.1 L499.5,124.1 L503.8,170.0 L508.0,257.9 L512.3,254.1 L516.5,194.8 L520.8,186.1   L525.1,67.4 L529.3,258.0 L533.6,283.8 L537.8,151.9  " stroke="rgb(  0,   0, 255)"/></g>
	</g>
<g color="white" fill="none" stroke="rgb(  0,   0, 255)" stroke-linecap="butt" stroke-linejoin="miter" stroke-width="2.00">
</g>
<g color="black" fill="none" stroke="currentColor" stroke-linecap="butt" stroke-linejoin="miter" stroke-width="2.00">
</g>
<g color="black" fill="none" stroke="black" stroke-linecap="butt" stroke-linejoin="miter" stroke-width="0.50">
</g>
<g color="black" fill="none" stroke="currentColor" stroke-linecap="butt" stroke-linejoin="miter" stroke-width="0.50">
</g>
</g>
</svg>